HIERARCHY
ROOT Hips
{
	OFFSET 0.000000 0.000000 0.000000
	CHANNELS 6 Xposition Yposition Zposition Xrotation Yrotation Zrotation
	JOINT LeftUpLeg_virtual
	{
		OFFSET 0.000000 0.000000 0.000000
		CHANNELS 3 Xrotation Yrotation Zrotation
		JOINT LeftUpLeg
		{
			OFFSET 11.394100 -6.187798 -0.413800
			CHANNELS 3 Xrotation Yrotation Zrotation
			JOINT LeftLeg
			{
				OFFSET 0.430247 -32.302673 3.732800
				CHANNELS 3 Xrotation Yrotation Zrotation
				JOINT LeftFoot
				{
					OFFSET -0.430247 -48.264931 -6.423300
					CHANNELS 3 Xrotation Yrotation Zrotation
					JOINT LeftToeBase
					{
						OFFSET 4.230900 -16.068199 23.438400
						CHANNELS 3 Xrotation Yrotation Zrotation
						JOINT LeftToe_End
						{
							OFFSET 4.510700 0.695400 19.974600
							CHANNELS 3 Xrotation Yrotation Zrotation
							End Site
							{
								OFFSET 0 0 0
							}
						}
					}
				}
			}
		}
	}
	JOINT RightUpLeg_virtual
	{
		OFFSET 0.000000 0.000000 0.000000
		CHANNELS 3 Xrotation Yrotation Zrotation
		JOINT RightUpLeg
		{
			OFFSET -11.333700 -6.187798 -0.413800
			CHANNELS 3 Xrotation Yrotation Zrotation
			JOINT RightLeg
			{
				OFFSET -0.430392 -32.302628 3.733000
				CHANNELS 3 Xrotation Yrotation Zrotation
				JOINT RightFoot
				{
					OFFSET 0.430392 -48.264973 -6.423500
					CHANNELS 3 Xrotation Yrotation Zrotation
					JOINT RightToeBase
					{
						OFFSET -4.230900 -16.068199 23.438400
						CHANNELS 3 Xrotation Yrotation Zrotation
						JOINT RightToe_End
						{
							OFFSET -4.510700 0.695400 19.974600
							CHANNELS 3 Xrotation Yrotation Zrotation
							End Site
							{
								OFFSET 0 0 0
							}
						}
					}
				}
			}
		}
	}
	JOINT Spine_virtual
	{
		OFFSET 0.000000 0.000000 0.000000
		CHANNELS 3 Xrotation Yrotation Zrotation
		JOINT Spine
		{
			OFFSET -0.002400 12.777504 0.315300
			CHANNELS 3 Xrotation Yrotation Zrotation
			JOINT Spine1
			{
				OFFSET -0.002067 5.816869 0.032633
				CHANNELS 3 Xrotation Yrotation Zrotation
				JOINT Spine1_split
				{
					OFFSET -0.002067 5.816869 0.032633
					CHANNELS 3 Xrotation Yrotation Zrotation
					JOINT Spine2
					{
						OFFSET -0.002067 5.816869 0.032633
						CHANNELS 3 Xrotation Yrotation Zrotation
						JOINT Neck_virtual
						{
							OFFSET 0.000000 0.000000 0.000000
							CHANNELS 3 Xrotation Yrotation Zrotation
							JOINT Neck
							{
								OFFSET -0.003700 21.199493 -0.826900
								CHANNELS 3 Xrotation Yrotation Zrotation
								JOINT Head
								{
									OFFSET 0.000000 20.442200 4.834800
									CHANNELS 3 Xrotation Yrotation Zrotation
									JOINT HeadTop_End
									{
										OFFSET 0.000000 34.668396 4.968400
										CHANNELS 3 Xrotation Yrotation Zrotation
										End Site
										{
											OFFSET 0 0 0
										}
									}
								}
							}
						}
						JOINT LeftShoulder_virtual
						{
							OFFSET 0.000000 0.000000 0.000000
							CHANNELS 3 Xrotation Yrotation Zrotation
							JOINT LeftShoulder
							{
								OFFSET 3.288150 8.794197 -1.372250
								CHANNELS 3 Xrotation Yrotation Zrotation
								JOINT LeftShoulder_split
								{
									OFFSET 3.288150 8.794197 -1.372250
									CHANNELS 3 Xrotation Yrotation Zrotation
									JOINT LeftArm
									{
										OFFSET 11.953299 -2.279007 -0.146200
										CHANNELS 3 Xrotation Yrotation Zrotation
										JOINT LeftForeArm
										{
											OFFSET 18.448900 0.000000 0.000000
											CHANNELS 3 Xrotation Yrotation Zrotation
											JOINT LeftHand
											{
												OFFSET 29.527798 0.000000 0.000000
												CHANNELS 3 Xrotation Yrotation Zrotation
												End Site
												{
													OFFSET 0 0 0
												}
											}
										}
									}
								}
							}
						}
						JOINT RightShoulder_virtual
						{
							OFFSET 0.000000 0.000000 0.000000
							CHANNELS 3 Xrotation Yrotation Zrotation
							JOINT RightShoulder
							{
								OFFSET -3.249400 8.794197 -1.372250
								CHANNELS 3 Xrotation Yrotation Zrotation
								JOINT RightShoulder_split
								{
									OFFSET -3.249400 8.794197 -1.372250
									CHANNELS 3 Xrotation Yrotation Zrotation
									JOINT RightArm
									{
										OFFSET -11.953299 -2.279007 -0.146200
										CHANNELS 3 Xrotation Yrotation Zrotation
										JOINT RightForeArm
										{
											OFFSET -18.448900 0.000000 0.000000
											CHANNELS 3 Xrotation Yrotation Zrotation
											JOINT RightHand
											{
												OFFSET -29.527802 0.000000 0.000000
												CHANNELS 3 Xrotation Yrotation Zrotation
												End Site
												{
													OFFSET 0 0 0
												}
											}
										}
									}
								}
							}
						}
					}
				}
			}
		}
	}
}
MOTION
Frames: 8
Frame Time: 0.03333333
-1.753958 44.601994 83.323906 0.000000 0.000000 0.000000 16.913061 -26.249213 -9.621028 -15.555857 7.669844 5.590151 96.916587 -3.372074 -3.249695 34.354841 -8.762206 -19.680536 0.826734 -1.030658 -3.914885 0.000000 0.000000 0.000000 17.990715 -18.727393 -11.163961 -1.844504 12.685495 -7.742205 67.282459 8.107566 -9.679003 48.485112 6.912539 19.112386 12.660935 -4.331896 -15.338127 0.000000 0.000000 0.000000 17.248121 -24.508819 -10.508961 7.042662 2.056412 4.421683 -3.225451 2.755691 1.720477 0.083260 -2.872786 1.379889 0.000000 0.000000 0.000000 -4.844765 2.758509 2.164406 -59.801940 -1.562614 18.796517 17.489181 15.852466 -16.343234 0.000000 0.000000 0.000000 -5.043581 2.834847 1.778408 -19.376471 0.903518 -15.696854 -4.253898 3.527692 -3.476180 11.926453 6.604283 -49.554057 72.207414 -31.687256 38.347165 0.000000 0.000000 0.000000 -5.088641 2.847320 1.862303 -18.356883 0.252743 22.557670 -8.754776 0.016925 -0.423724 4.559098 -9.079544 49.951427 7.178765 33.129563 9.292725 0.000000 0.000000 0.000000 
-1.390592 44.154873 86.586395 0.000000 0.000000 0.000000 18.476674 -27.738950 -9.730971 -10.622027 7.555311 4.270083 92.013310 -1.222956 -6.353548 31.572607 -6.104747 -19.019123 0.957592 -1.194193 -4.438038 0.000000 0.000000 0.000000 19.503130 -18.616475 -11.540876 -1.611427 12.114464 -7.825757 67.900584 8.218917 -9.720027 47.308414 7.304895 18.326943 13.349867 -4.426713 -12.221299 0.000000 0.000000 0.000000 18.314068 -24.932328 -10.880629 6.918143 1.606230 4.933307 -3.495871 2.537123 2.032996 0.451892 -2.407914 1.194382 0.000000 0.000000 0.000000 -4.961456 2.614156 2.369468 -61.559136 -2.256991 19.775402 18.584530 16.701428 -16.939634 0.000000 0.000000 0.000000 -5.195661 2.630123 2.079679 -19.382117 1.186134 -15.589927 -3.752141 3.364229 -3.740910 13.047944 10.267870 -46.721410 75.320847 -33.734977 39.220268 0.000000 0.000000 0.000000 -5.276400 2.707031 2.104045 -18.328352 -1.022181 22.145789 -7.704863 -0.216623 0.263668 4.332956 -5.956046 52.573209 -1.827100 37.693215 13.749391 0.000000 0.000000 0.000000 
-1.090631 43.413406 89.690247 0.000000 0.000000 0.000000 20.265795 -28.529861 -9.560837 -6.386165 6.160512 2.831686 88.702519 -0.194232 -8.008188 30.486163 -4.629160 -20.619137 -1.585820 -1.432528 -3.349154 0.000000 0.000000 0.000000 21.507986 -18.150577 -11.740650 -1.451831 10.899239 -7.819625 67.551124 8.261206 -9.338864 47.542539 7.943043 17.615545 13.196005 -4.473066 -8.670767 0.000000 0.000000 0.000000 19.777707 -24.773245 -10.917568 6.686389 1.088119 5.131481 -3.602021 2.264656 2.454123 0.723895 -1.860049 0.948845 0.000000 0.000000 0.000000 -4.817411 2.416475 2.702095 -63.540055 -2.848663 20.143186 19.383968 16.927700 -17.411617 0.000000 0.000000 0.000000 -5.210829 2.414868 2.497908 -19.432950 0.991794 -14.981373 -2.732018 2.966770 -4.004487 14.811086 11.522882 -43.610317 74.922039 -37.734084 38.375138 0.000000 0.000000 0.000000 -5.164423 2.525524 2.475908 -18.419562 -2.037620 21.702477 -6.448515 -0.909661 0.865905 4.629203 -2.879272 55.596312 -7.689164 44.024756 15.834289 0.000000 0.000000 0.000000 
-0.884046 42.365555 92.645782 0.000000 0.000000 0.000000 22.466987 -28.306220 -9.051636 -3.488315 3.568606 1.248614 86.690646 -0.236152 -8.069901 30.817141 -4.255045 -23.289803 -3.322908 -1.819297 -1.585963 0.000000 0.000000 0.000000 23.998831 -17.646528 -11.727450 -1.149225 9.482761 -7.713453 66.036359 8.284738 -8.728877 48.834015 8.686442 17.114564 11.903045 -4.531561 -5.265746 0.000000 0.000000 0.000000 21.924405 -24.128075 -10.670425 6.353976 0.617756 4.983336 -3.560533 2.012783 2.922532 0.820469 -1.350734 0.898667 0.000000 0.000000 0.000000 -4.527645 2.231139 3.114702 -65.643077 -3.229145 19.923575 19.857658 16.433452 -17.698625 0.000000 0.000000 0.000000 -5.118166 2.257033 2.948736 -19.523326 0.376268 -13.972097 -1.904756 2.628879 -4.242533 16.658475 10.940603 -40.552571 70.524640 -42.389547 35.031767 0.000000 0.000000 0.000000 -4.820245 2.372044 2.886038 -18.686392 -2.616377 21.382271 -5.363555 -1.684915 1.206349 5.441509 -0.426487 57.583658 -9.313170 50.893345 14.683476 0.000000 0.000000 0.000000 
-0.813899 41.210880 95.292976 0.000000 0.000000 0.000000 25.281240 -27.138517 -8.350710 -1.612903 -0.097670 -0.630773 84.047008 -0.149368 -6.931282 30.538131 -4.028680 -25.608850 -2.668074 -2.069372 -0.293031 0.000000 0.000000 0.000000 26.998510 -17.210263 -11.430705 -0.413316 8.264984 -7.444658 63.580551 8.169943 -8.005366 50.314910 9.107927 16.796231 9.828487 -4.651407 -2.471817 0.000000 0.000000 0.000000 24.804621 -23.023712 -10.359417 5.964211 0.281617 4.584675 -3.446560 1.840080 3.361647 0.846099 -0.895113 1.056954 0.000000 0.000000 0.000000 -4.213213 2.094356 3.479822 -67.772791 -3.376250 19.217034 20.143802 15.363442 -17.875621 0.000000 0.000000 0.000000 -4.956720 2.223921 3.314347 -19.610528 -0.414713 -12.726527 -1.629722 2.131006 -4.622981 18.730351 9.304166 -37.968024 62.867411 -46.611185 29.546152 0.000000 0.000000 0.000000 -4.379946 2.291522 3.234504 -19.073337 -2.829996 21.239617 -4.359574 -2.145842 1.057383 6.636771 1.146078 57.919601 -5.620608 57.408382 9.309807 0.000000 0.000000 0.000000 
-0.767859 40.006687 98.007652 0.000000 0.000000 0.000000 28.771608 -24.964850 -7.813841 0.130596 -4.458004 -2.945255 79.659301 0.515065 -4.705651 28.462063 -3.219605 -27.650305 0.081944 -2.038244 -0.189668 0.000000 0.000000 0.000000 30.435340 -16.768328 -11.012919 0.799526 7.670424 -7.036544 60.441129 8.001435 -7.333546 51.254177 9.177042 16.796745 7.646968 -4.783247 -0.544311 0.000000 0.000000 0.000000 28.474780 -21.749757 -9.989777 5.547549 0.153594 4.027933 -3.316015 1.780528 3.678779 0.758896 -0.519642 1.231552 0.000000 0.000000 0.000000 -3.993246 2.046907 3.713810 -69.819382 -3.195037 18.229334 20.405308 13.945156 -18.096429 0.000000 0.000000 0.000000 -4.777593 2.322922 3.493505 -19.664427 -1.051563 -11.324893 -2.201126 1.724585 -5.046608 21.281930 7.220233 -36.168464 54.445777 -49.864319 23.833448 0.000000 0.000000 0.000000 -3.949183 2.309757 3.434849 -19.479445 -2.835256 21.161932 -3.956200 -2.048686 0.800699 8.559076 1.853179 56.631564 3.772777 62.359422 -0.687580 0.000000 0.000000 0.000000 
-0.815863 38.646496 100.886902 0.000000 0.000000 0.000000 32.849235 -22.015706 -7.643479 2.233897 -8.854616 -5.242632 73.314977 1.500240 -1.696159 25.197594 -2.400930 -29.615249 1.787598 -1.765904 -0.674118 0.000000 0.000000 0.000000 34.179711 -15.959700 -10.803966 2.633348 7.694756 -6.540345 57.188487 7.888149 -6.875658 51.372066 8.987475 17.164315 5.819833 -4.789975 0.499668 0.000000 0.000000 0.000000 32.845915 -20.182618 -9.674014 5.115638 0.267489 3.481166 -3.244351 1.820512 3.852000 0.680263 -0.366583 1.437666 0.000000 0.000000 0.000000 -3.950148 2.078631 3.803499 -71.769654 -2.800778 17.215473 20.693619 12.495122 -18.490628 0.000000 0.000000 0.000000 -4.676858 2.520898 3.505010 -19.681497 -1.377256 -9.860818 -3.195429 1.224836 -5.709539 24.124158 5.000910 -35.095739 48.028746 -52.693195 20.140298 0.000000 0.000000 0.000000 -3.675572 2.401844 3.474227 -19.804750 -2.815614 21.005764 -4.053275 -1.520420 0.665340 11.363644 1.737678 54.129621 16.948939 65.332494 -13.435046 0.000000 0.000000 0.000000 
-0.897686 36.878727 103.865837 0.000000 0.000000 0.000000 37.104630 -19.021650 -7.921803 4.256983 -12.683852 -6.881221 66.805971 2.429654 1.648303 22.185213 -2.094216 -31.499876 0.821403 -1.321807 -1.451700 0.000000 0.000000 0.000000 38.264885 -14.853407 -10.833929 4.855765 8.104855 -6.147971 54.262595 7.920320 -6.638959 50.944137 8.786193 18.086686 4.081756 -4.606876 0.773323 0.000000 0.000000 0.000000 37.608435 -18.607676 -9.366516 4.704188 0.556389 3.005354 -3.270749 1.880847 3.908752 0.499922 -0.473546 1.521291 0.000000 0.000000 0.000000 -4.056471 2.121637 3.767622 -73.545804 -2.317051 16.469227 21.055354 11.406259 -19.180559 0.000000 0.000000 0.000000 -4.696849 2.731188 3.407132 -19.661907 -1.274224 -8.383460 -4.445660 0.870733 -6.472675 27.300645 2.991527 -34.532163 45.516555 -55.930138 19.964986 0.000000 0.000000 0.000000 -3.588913 2.493086 3.409774 -19.936969 -3.002324 20.505700 -4.453557 -1.030156 0.959560 14.968365 0.830353 51.268667 31.089669 66.854554 -26.207998 0.000000 0.000000 0.000000 
